<svg width="150" height="17" viewBox="0 0 150 17" fill="none" xmlns="http://www.w3.org/2000/svg">
<path d="M1.34 6.557C1.754 6.053 2.225 5.651 2.753 5.351C3.287 5.051 3.884 4.901 4.544 4.901C5.036 4.901 5.468 4.979 5.84 5.135C6.218 5.291 6.53 5.516 6.776 5.81C7.022 6.104 7.208 6.458 7.334 6.872C7.46 7.286 7.523 7.754 7.523 8.276V14H6.659V8.276C6.659 7.436 6.467 6.779 6.083 6.305C5.699 5.825 5.114 5.585 4.328 5.585C3.746 5.585 3.2 5.735 2.69 6.035C2.186 6.329 1.736 6.74 1.34 7.268V14H0.476V0.905H1.34V6.557ZM16.6545 8.618C16.6545 8.138 16.5855 7.709 16.4475 7.331C16.3155 6.947 16.1265 6.623 15.8805 6.359C15.6345 6.095 15.3405 5.894 14.9985 5.756C14.6625 5.612 14.2905 5.54 13.8825 5.54C13.4205 5.54 13.0065 5.612 12.6405 5.756C12.2745 5.9 11.9565 6.107 11.6865 6.377C11.4225 6.647 11.2095 6.971 11.0475 7.349C10.8855 7.727 10.7775 8.15 10.7235 8.618H16.6545ZM10.6785 9.167V9.338C10.6785 10.01 10.7565 10.601 10.9125 11.111C11.0685 11.621 11.2905 12.05 11.5785 12.398C11.8665 12.74 12.2145 12.998 12.6225 13.172C13.0305 13.346 13.4865 13.433 13.9905 13.433C14.4405 13.433 14.8305 13.385 15.1605 13.289C15.4905 13.187 15.7665 13.076 15.9885 12.956C16.2165 12.83 16.3965 12.719 16.5285 12.623C16.6605 12.521 16.7565 12.47 16.8165 12.47C16.8945 12.47 16.9545 12.5 16.9965 12.56L17.2305 12.848C17.0865 13.028 16.8945 13.196 16.6545 13.352C16.4205 13.508 16.1565 13.643 15.8625 13.757C15.5745 13.865 15.2625 13.952 14.9265 14.018C14.5965 14.084 14.2635 14.117 13.9275 14.117C13.3155 14.117 12.7575 14.012 12.2535 13.802C11.7495 13.586 11.3175 13.274 10.9575 12.866C10.5975 12.458 10.3185 11.96 10.1205 11.372C9.92848 10.778 9.83248 10.1 9.83248 9.338C9.83248 8.696 9.92248 8.105 10.1025 7.565C10.2885 7.019 10.5525 6.551 10.8945 6.161C11.2425 5.765 11.6655 5.456 12.1635 5.234C12.6675 5.012 13.2375 4.901 13.8735 4.901C14.3775 4.901 14.8455 4.988 15.2775 5.162C15.7095 5.336 16.0845 5.591 16.4025 5.927C16.7205 6.257 16.9695 6.665 17.1495 7.151C17.3355 7.637 17.4285 8.195 17.4285 8.825C17.4285 8.957 17.4105 9.047 17.3745 9.095C17.3385 9.143 17.2785 9.167 17.1945 9.167H10.6785ZM20.7042 0.905V14H19.8402V0.905H20.7042ZM24.6769 0.905V14H23.8129V0.905H24.6769ZM31.2505 4.901C31.8925 4.901 32.4655 5.012 32.9695 5.234C33.4795 5.45 33.9085 5.759 34.2565 6.161C34.6045 6.563 34.8685 7.049 35.0485 7.619C35.2345 8.183 35.3275 8.816 35.3275 9.518C35.3275 10.22 35.2345 10.853 35.0485 11.417C34.8685 11.981 34.6045 12.464 34.2565 12.866C33.9085 13.268 33.4795 13.577 32.9695 13.793C32.4655 14.009 31.8925 14.117 31.2505 14.117C30.6085 14.117 30.0325 14.009 29.5225 13.793C29.0185 13.577 28.5895 13.268 28.2355 12.866C27.8875 12.464 27.6205 11.981 27.4345 11.417C27.2545 10.853 27.1645 10.22 27.1645 9.518C27.1645 8.816 27.2545 8.183 27.4345 7.619C27.6205 7.049 27.8875 6.563 28.2355 6.161C28.5895 5.759 29.0185 5.45 29.5225 5.234C30.0325 5.012 30.6085 4.901 31.2505 4.901ZM31.2505 13.442C31.7845 13.442 32.2495 13.352 32.6455 13.172C33.0475 12.986 33.3805 12.722 33.6445 12.38C33.9145 12.038 34.1155 11.627 34.2475 11.147C34.3795 10.661 34.4455 10.118 34.4455 9.518C34.4455 8.924 34.3795 8.384 34.2475 7.898C34.1155 7.412 33.9145 6.998 33.6445 6.656C33.3805 6.308 33.0475 6.041 32.6455 5.855C32.2495 5.669 31.7845 5.576 31.2505 5.576C30.7165 5.576 30.2485 5.669 29.8465 5.855C29.4505 6.041 29.1175 6.308 28.8475 6.656C28.5835 6.998 28.3825 7.412 28.2445 7.898C28.1125 8.384 28.0465 8.924 28.0465 9.518C28.0465 10.118 28.1125 10.661 28.2445 11.147C28.3825 11.627 28.5835 12.038 28.8475 12.38C29.1175 12.722 29.4505 12.986 29.8465 13.172C30.2485 13.352 30.7165 13.442 31.2505 13.442ZM46.0396 6.395C45.8956 6.353 45.7456 6.323 45.5896 6.305C45.4396 6.281 45.2626 6.269 45.0586 6.269C44.5186 6.269 44.0266 6.38 43.5826 6.602C43.1446 6.818 42.7696 7.103 42.4576 7.457C42.1516 7.811 41.9116 8.21 41.7376 8.654C41.5696 9.092 41.4856 9.536 41.4856 9.986C41.4856 10.226 41.5156 10.451 41.5756 10.661C41.6356 10.865 41.7256 11.042 41.8456 11.192C41.9656 11.342 42.1126 11.462 42.2866 11.552C42.4666 11.636 42.6766 11.678 42.9166 11.678C43.1326 11.678 43.3546 11.642 43.5826 11.57C43.8166 11.498 44.0386 11.369 44.2486 11.183C44.4646 10.991 44.6656 10.736 44.8516 10.418C45.0376 10.094 45.1936 9.683 45.3196 9.185L46.0396 6.395ZM46.0036 9.131C45.8596 9.683 45.7906 10.13 45.7966 10.472C45.8026 10.814 45.8596 11.081 45.9676 11.273C46.0756 11.459 46.2196 11.585 46.3996 11.651C46.5856 11.711 46.7836 11.741 46.9936 11.741C47.3356 11.741 47.6626 11.651 47.9746 11.471C48.2866 11.291 48.5626 11.036 48.8026 10.706C49.0426 10.37 49.2316 9.965 49.3696 9.491C49.5136 9.017 49.5856 8.486 49.5856 7.898C49.5856 7.01 49.4386 6.236 49.1446 5.576C48.8566 4.91 48.4606 4.358 47.9566 3.92C47.4586 3.482 46.8766 3.155 46.2106 2.939C45.5446 2.723 44.8366 2.615 44.0866 2.615C43.2646 2.615 42.4846 2.774 41.7466 3.092C41.0146 3.41 40.3696 3.854 39.8116 4.424C39.2596 4.994 38.8186 5.675 38.4886 6.467C38.1646 7.253 38.0026 8.117 38.0026 9.059C38.0026 10.121 38.1706 11.057 38.5066 11.867C38.8486 12.671 39.3106 13.346 39.8926 13.892C40.4746 14.432 41.1526 14.84 41.9266 15.116C42.7066 15.398 43.5346 15.539 44.4106 15.539C45.2986 15.539 46.1086 15.437 46.8406 15.233C47.5786 15.029 48.2476 14.732 48.8476 14.342C48.9196 14.294 48.9856 14.279 49.0456 14.297C49.1056 14.315 49.1506 14.357 49.1806 14.423L49.3156 14.756C48.6436 15.2 47.9026 15.542 47.0926 15.782C46.2886 16.022 45.3946 16.142 44.4106 16.142C43.4206 16.142 42.4966 15.983 41.6386 15.665C40.7806 15.353 40.0336 14.894 39.3976 14.288C38.7616 13.688 38.2606 12.95 37.8946 12.074C37.5286 11.192 37.3456 10.187 37.3456 9.059C37.3456 8.057 37.5226 7.127 37.8766 6.269C38.2306 5.411 38.7136 4.667 39.3256 4.037C39.9376 3.407 40.6516 2.915 41.4676 2.561C42.2836 2.201 43.1566 2.021 44.0866 2.021C44.8906 2.021 45.6616 2.147 46.3996 2.399C47.1376 2.645 47.7886 3.017 48.3526 3.515C48.9226 4.007 49.3756 4.619 49.7116 5.351C50.0536 6.083 50.2246 6.932 50.2246 7.898C50.2246 8.552 50.1376 9.149 49.9636 9.689C49.7896 10.229 49.5496 10.694 49.2436 11.084C48.9436 11.468 48.5896 11.768 48.1816 11.984C47.7736 12.2 47.3386 12.308 46.8766 12.308C46.3486 12.308 45.9496 12.17 45.6796 11.894C45.4156 11.612 45.2776 11.207 45.2656 10.679C44.9296 11.243 44.5486 11.651 44.1226 11.903C43.7026 12.149 43.2466 12.272 42.7546 12.272C42.4186 12.272 42.1276 12.215 41.8816 12.101C41.6356 11.981 41.4316 11.819 41.2696 11.615C41.1076 11.411 40.9846 11.171 40.9006 10.895C40.8226 10.619 40.7836 10.322 40.7836 10.004C40.7836 9.494 40.8796 8.984 41.0716 8.474C41.2696 7.958 41.5546 7.496 41.9266 7.088C42.3046 6.674 42.7666 6.338 43.3126 6.08C43.8586 5.822 44.4796 5.693 45.1756 5.693C45.4936 5.693 45.7906 5.72 46.0666 5.774C46.3486 5.828 46.6006 5.906 46.8226 6.008L46.0036 9.131ZM53.4669 6.611C53.8809 6.095 54.3579 5.681 54.8979 5.369C55.4439 5.057 56.0499 4.901 56.7159 4.901C57.2079 4.901 57.6399 4.979 58.0119 5.135C58.3899 5.291 58.7019 5.516 58.9479 5.81C59.1939 6.104 59.3799 6.458 59.5059 6.872C59.6319 7.286 59.6949 7.754 59.6949 8.276V14H58.8309V8.276C58.8309 7.436 58.6389 6.779 58.2549 6.305C57.8709 5.825 57.2859 5.585 56.4999 5.585C55.9179 5.585 55.3719 5.735 54.8619 6.035C54.3579 6.329 53.9079 6.74 53.5119 7.268V14H52.6479V5.045H53.1249C53.2749 5.045 53.3619 5.12 53.3859 5.27L53.4669 6.611ZM63.4984 5.045V14H62.6434V5.045H63.4984ZM63.8674 1.958C63.8674 2.066 63.8434 2.168 63.7954 2.264C63.7534 2.354 63.6964 2.435 63.6244 2.507C63.5524 2.579 63.4684 2.636 63.3724 2.678C63.2764 2.72 63.1744 2.741 63.0664 2.741C62.9584 2.741 62.8564 2.72 62.7604 2.678C62.6644 2.636 62.5804 2.579 62.5084 2.507C62.4364 2.435 62.3794 2.354 62.3374 2.264C62.2954 2.168 62.2744 2.066 62.2744 1.958C62.2744 1.85 62.2954 1.748 62.3374 1.652C62.3794 1.55 62.4364 1.463 62.5084 1.391C62.5804 1.319 62.6644 1.262 62.7604 1.22C62.8564 1.178 62.9584 1.157 63.0664 1.157C63.1744 1.157 63.2764 1.178 63.3724 1.22C63.4684 1.262 63.5524 1.319 63.6244 1.391C63.6964 1.463 63.7534 1.55 63.7954 1.652C63.8434 1.748 63.8674 1.85 63.8674 1.958ZM72.5732 6.242C72.5432 6.272 72.5132 6.299 72.4832 6.323C72.4592 6.341 72.4232 6.35 72.3752 6.35C72.3152 6.35 72.2342 6.311 72.1322 6.233C72.0302 6.149 71.8922 6.059 71.7182 5.963C71.5442 5.867 71.3252 5.78 71.0612 5.702C70.8032 5.618 70.4882 5.576 70.1162 5.576C69.6002 5.576 69.1412 5.669 68.7392 5.855C68.3432 6.035 68.0072 6.296 67.7312 6.638C67.4552 6.98 67.2452 7.394 67.1012 7.88C66.9632 8.366 66.8942 8.912 66.8942 9.518C66.8942 10.148 66.9662 10.706 67.1102 11.192C67.2602 11.678 67.4702 12.089 67.7402 12.425C68.0102 12.755 68.3372 13.007 68.7212 13.181C69.1052 13.355 69.5312 13.442 69.9992 13.442C70.4312 13.442 70.7912 13.391 71.0792 13.289C71.3732 13.187 71.6132 13.076 71.7992 12.956C71.9912 12.836 72.1412 12.725 72.2492 12.623C72.3572 12.521 72.4472 12.47 72.5192 12.47C72.5912 12.47 72.6512 12.5 72.6992 12.56L72.9242 12.848C72.7862 13.028 72.6122 13.196 72.4022 13.352C72.1922 13.508 71.9552 13.643 71.6912 13.757C71.4272 13.871 71.1392 13.958 70.8272 14.018C70.5212 14.084 70.2002 14.117 69.8642 14.117C69.2942 14.117 68.7722 14.015 68.2982 13.811C67.8302 13.601 67.4252 13.301 67.0832 12.911C66.7472 12.515 66.4832 12.032 66.2912 11.462C66.1052 10.892 66.0122 10.244 66.0122 9.518C66.0122 8.834 66.1022 8.21 66.2822 7.646C66.4622 7.082 66.7262 6.596 67.0742 6.188C67.4222 5.78 67.8452 5.465 68.3432 5.243C68.8472 5.015 69.4232 4.901 70.0712 4.901C70.6532 4.901 71.1692 4.994 71.6192 5.18C72.0692 5.366 72.4622 5.618 72.7982 5.936L72.5732 6.242ZM75.9064 0.905V8.888H76.3204C76.4044 8.888 76.4824 8.876 76.5544 8.852C76.6324 8.828 76.7164 8.771 76.8064 8.681L80.3974 5.27C80.4574 5.198 80.5234 5.144 80.5954 5.108C80.6674 5.066 80.7574 5.045 80.8654 5.045H81.6214L77.6704 8.798C77.5624 8.924 77.4454 9.023 77.3194 9.095C77.4154 9.143 77.4964 9.2 77.5624 9.266C77.6344 9.326 77.7034 9.398 77.7694 9.482L81.9184 14H81.1714C81.0874 14 81.0094 13.988 80.9374 13.964C80.8714 13.934 80.8084 13.877 80.7484 13.793L76.9864 9.761C76.9384 9.707 76.8904 9.662 76.8424 9.626C76.8004 9.59 76.7554 9.563 76.7074 9.545C76.6594 9.521 76.6024 9.506 76.5364 9.5C76.4764 9.488 76.4014 9.482 76.3114 9.482H75.9064V14H75.0424V0.905H75.9064ZM95.438 5.045L92.45 14H91.811C91.709 14 91.64 13.937 91.604 13.811L89.156 6.539C89.126 6.449 89.099 6.359 89.075 6.269C89.051 6.179 89.03 6.089 89.012 5.999C88.982 6.179 88.937 6.359 88.877 6.539L86.393 13.811C86.357 13.937 86.285 14 86.177 14H85.565L82.577 5.045H83.225C83.309 5.045 83.378 5.069 83.432 5.117C83.486 5.159 83.522 5.207 83.54 5.261L85.799 12.326C85.835 12.464 85.868 12.599 85.898 12.731C85.928 12.857 85.952 12.983 85.97 13.109C86.006 12.983 86.042 12.857 86.078 12.731C86.114 12.599 86.156 12.464 86.204 12.326L88.598 5.198C88.64 5.066 88.724 5 88.85 5H89.201C89.333 5 89.42 5.066 89.462 5.198L91.838 12.326C91.88 12.464 91.919 12.596 91.955 12.722C91.991 12.848 92.024 12.974 92.054 13.1C92.078 12.974 92.102 12.848 92.126 12.722C92.156 12.596 92.192 12.464 92.234 12.326L94.511 5.261C94.535 5.195 94.574 5.144 94.628 5.108C94.682 5.066 94.745 5.045 94.817 5.045H95.438ZM100.807 4.901C101.449 4.901 102.022 5.012 102.526 5.234C103.036 5.45 103.465 5.759 103.813 6.161C104.161 6.563 104.425 7.049 104.605 7.619C104.791 8.183 104.884 8.816 104.884 9.518C104.884 10.22 104.791 10.853 104.605 11.417C104.425 11.981 104.161 12.464 103.813 12.866C103.465 13.268 103.036 13.577 102.526 13.793C102.022 14.009 101.449 14.117 100.807 14.117C100.165 14.117 99.5892 14.009 99.0792 13.793C98.5752 13.577 98.1462 13.268 97.7922 12.866C97.4442 12.464 97.1772 11.981 96.9912 11.417C96.8112 10.853 96.7212 10.22 96.7212 9.518C96.7212 8.816 96.8112 8.183 96.9912 7.619C97.1772 7.049 97.4442 6.563 97.7922 6.161C98.1462 5.759 98.5752 5.45 99.0792 5.234C99.5892 5.012 100.165 4.901 100.807 4.901ZM100.807 13.442C101.341 13.442 101.806 13.352 102.202 13.172C102.604 12.986 102.937 12.722 103.201 12.38C103.471 12.038 103.672 11.627 103.804 11.147C103.936 10.661 104.002 10.118 104.002 9.518C104.002 8.924 103.936 8.384 103.804 7.898C103.672 7.412 103.471 6.998 103.201 6.656C102.937 6.308 102.604 6.041 102.202 5.855C101.806 5.669 101.341 5.576 100.807 5.576C100.273 5.576 99.8052 5.669 99.4032 5.855C99.0072 6.041 98.6742 6.308 98.4042 6.656C98.1402 6.998 97.9392 7.412 97.8012 7.898C97.6692 8.384 97.6032 8.924 97.6032 9.518C97.6032 10.118 97.6692 10.661 97.8012 11.147C97.9392 11.627 98.1402 12.038 98.4042 12.38C98.6742 12.722 99.0072 12.986 99.4032 13.172C99.8052 13.352 100.273 13.442 100.807 13.442ZM108.243 0.905V14H107.379V0.905H108.243ZM112.216 0.905V14H111.352V0.905H112.216ZM115.037 13.307C115.037 13.193 115.058 13.085 115.1 12.983C115.142 12.881 115.199 12.794 115.271 12.722C115.349 12.644 115.436 12.584 115.532 12.542C115.634 12.494 115.745 12.47 115.865 12.47C115.979 12.47 116.087 12.494 116.189 12.542C116.291 12.584 116.378 12.644 116.45 12.722C116.528 12.794 116.588 12.881 116.63 12.983C116.678 13.085 116.702 13.193 116.702 13.307C116.702 13.427 116.678 13.538 116.63 13.64C116.588 13.736 116.528 13.823 116.45 13.901C116.378 13.973 116.291 14.03 116.189 14.072C116.087 14.114 115.979 14.135 115.865 14.135C115.631 14.135 115.433 14.057 115.271 13.901C115.115 13.739 115.037 13.541 115.037 13.307ZM125.466 6.242C125.436 6.272 125.406 6.299 125.376 6.323C125.352 6.341 125.316 6.35 125.268 6.35C125.208 6.35 125.127 6.311 125.025 6.233C124.923 6.149 124.785 6.059 124.611 5.963C124.437 5.867 124.218 5.78 123.954 5.702C123.696 5.618 123.381 5.576 123.009 5.576C122.493 5.576 122.034 5.669 121.632 5.855C121.236 6.035 120.9 6.296 120.624 6.638C120.348 6.98 120.138 7.394 119.994 7.88C119.856 8.366 119.787 8.912 119.787 9.518C119.787 10.148 119.859 10.706 120.003 11.192C120.153 11.678 120.363 12.089 120.633 12.425C120.903 12.755 121.23 13.007 121.614 13.181C121.998 13.355 122.424 13.442 122.892 13.442C123.324 13.442 123.684 13.391 123.972 13.289C124.266 13.187 124.506 13.076 124.692 12.956C124.884 12.836 125.034 12.725 125.142 12.623C125.25 12.521 125.34 12.47 125.412 12.47C125.484 12.47 125.544 12.5 125.592 12.56L125.817 12.848C125.679 13.028 125.505 13.196 125.295 13.352C125.085 13.508 124.848 13.643 124.584 13.757C124.32 13.871 124.032 13.958 123.72 14.018C123.414 14.084 123.093 14.117 122.757 14.117C122.187 14.117 121.665 14.015 121.191 13.811C120.723 13.601 120.318 13.301 119.976 12.911C119.64 12.515 119.376 12.032 119.184 11.462C118.998 10.892 118.905 10.244 118.905 9.518C118.905 8.834 118.995 8.21 119.175 7.646C119.355 7.082 119.619 6.596 119.967 6.188C120.315 5.78 120.738 5.465 121.236 5.243C121.74 5.015 122.316 4.901 122.964 4.901C123.546 4.901 124.062 4.994 124.512 5.18C124.962 5.366 125.355 5.618 125.691 5.936L125.466 6.242ZM131.305 4.901C131.947 4.901 132.52 5.012 133.024 5.234C133.534 5.45 133.963 5.759 134.311 6.161C134.659 6.563 134.923 7.049 135.103 7.619C135.289 8.183 135.382 8.816 135.382 9.518C135.382 10.22 135.289 10.853 135.103 11.417C134.923 11.981 134.659 12.464 134.311 12.866C133.963 13.268 133.534 13.577 133.024 13.793C132.52 14.009 131.947 14.117 131.305 14.117C130.663 14.117 130.087 14.009 129.577 13.793C129.073 13.577 128.644 13.268 128.29 12.866C127.942 12.464 127.675 11.981 127.489 11.417C127.309 10.853 127.219 10.22 127.219 9.518C127.219 8.816 127.309 8.183 127.489 7.619C127.675 7.049 127.942 6.563 128.29 6.161C128.644 5.759 129.073 5.45 129.577 5.234C130.087 5.012 130.663 4.901 131.305 4.901ZM131.305 13.442C131.839 13.442 132.304 13.352 132.7 13.172C133.102 12.986 133.435 12.722 133.699 12.38C133.969 12.038 134.17 11.627 134.302 11.147C134.434 10.661 134.5 10.118 134.5 9.518C134.5 8.924 134.434 8.384 134.302 7.898C134.17 7.412 133.969 6.998 133.699 6.656C133.435 6.308 133.102 6.041 132.7 5.855C132.304 5.669 131.839 5.576 131.305 5.576C130.771 5.576 130.303 5.669 129.901 5.855C129.505 6.041 129.172 6.308 128.902 6.656C128.638 6.998 128.437 7.412 128.299 7.898C128.167 8.384 128.101 8.924 128.101 9.518C128.101 10.118 128.167 10.661 128.299 11.147C128.437 11.627 128.638 12.038 128.902 12.38C129.172 12.722 129.505 12.986 129.901 13.172C130.303 13.352 130.771 13.442 131.305 13.442ZM137.796 14V5.045H138.273C138.423 5.045 138.51 5.12 138.534 5.27L138.615 6.566C138.963 6.068 139.362 5.666 139.812 5.36C140.262 5.054 140.769 4.901 141.333 4.901C141.987 4.901 142.509 5.09 142.899 5.468C143.295 5.846 143.562 6.371 143.7 7.043C143.808 6.677 143.958 6.359 144.15 6.089C144.348 5.819 144.573 5.597 144.825 5.423C145.077 5.243 145.35 5.111 145.644 5.027C145.944 4.943 146.25 4.901 146.562 4.901C147.006 4.901 147.405 4.976 147.759 5.126C148.113 5.27 148.413 5.486 148.659 5.774C148.905 6.062 149.094 6.416 149.226 6.836C149.358 7.256 149.424 7.736 149.424 8.276V14H148.569V8.276C148.569 7.4 148.38 6.734 148.002 6.278C147.624 5.816 147.084 5.585 146.382 5.585C146.07 5.585 145.77 5.642 145.482 5.756C145.2 5.87 144.948 6.041 144.726 6.269C144.51 6.491 144.336 6.77 144.204 7.106C144.078 7.442 144.015 7.832 144.015 8.276V14H143.151V8.276C143.151 7.406 142.977 6.74 142.629 6.278C142.287 5.816 141.783 5.585 141.117 5.585C140.631 5.585 140.181 5.729 139.767 6.017C139.353 6.305 138.984 6.704 138.66 7.214V14H137.796Z" fill="#5A5A5A"/>
</svg>
