<svg width="592" height="60" viewBox="0 0 592 60" fill="none" xmlns="http://www.w3.org/2000/svg">
<path d="M42.0625 49H23.25V46.7188C23.6458 46.6771 24.125 46.625 24.6875 46.5625C25.25 46.5 25.6771 46.3958 25.9688 46.25C26.4062 46.0208 26.7188 45.6875 26.9062 45.25C27.0938 44.8125 27.1875 44.1667 27.1875 43.3125V28.6875C27.1875 26.5625 26.7917 24.9688 26 23.9062C25.2292 22.8229 24.0833 22.2812 22.5625 22.2812C21.7292 22.2812 20.9479 22.4062 20.2188 22.6562C19.5104 22.9062 18.8125 23.2708 18.125 23.75C17.5208 24.1667 17.0312 24.5938 16.6562 25.0312C16.3021 25.4688 16 25.8542 15.75 26.1875V42.9688C15.75 43.6979 15.8542 44.3125 16.0625 44.8125C16.2708 45.2917 16.6146 45.6562 17.0938 45.9062C17.4271 46.0938 17.8438 46.2604 18.3438 46.4062C18.8438 46.5521 19.3333 46.6562 19.8125 46.7188V49H0.8125V46.7188C1.33333 46.6771 1.85417 46.625 2.375 46.5625C2.91667 46.4792 3.375 46.375 3.75 46.25C4.41667 46.0208 4.875 45.6667 5.125 45.1875C5.375 44.7083 5.5 44.0833 5.5 43.3125V25.125C5.5 24.4792 5.33333 23.8438 5 23.2188C4.66667 22.5938 4.22917 22.0833 3.6875 21.6875C3.3125 21.4375 2.83333 21.2292 2.25 21.0625C1.6875 20.8958 1.0625 20.7812 0.375 20.7188V18.4375L15.2812 17.625L15.75 18.0938V22.625H15.875C16.4583 22.1042 17.1667 21.4792 18 20.75C18.8333 20.0208 19.6042 19.4271 20.3125 18.9688C21.0833 18.4688 22.0938 18.0417 23.3438 17.6875C24.5938 17.3333 25.9271 17.1562 27.3438 17.1562C30.7396 17.1562 33.2812 18.125 34.9688 20.0625C36.6771 21.9792 37.5312 24.5312 37.5312 27.7188V43.0312C37.5312 43.8021 37.6458 44.4167 37.875 44.875C38.1042 45.3333 38.5312 45.6979 39.1562 45.9688C39.4896 46.1146 39.8958 46.2604 40.375 46.4062C40.875 46.5521 41.4375 46.6562 42.0625 46.7188V49ZM64.75 49H45V46.7188C45.5417 46.6771 46.0729 46.625 46.5938 46.5625C47.1146 46.5 47.5625 46.3958 47.9375 46.25C48.6042 46 49.0729 45.6458 49.3438 45.1875C49.6146 44.7083 49.75 44.0833 49.75 43.3125V25.125C49.75 24.3958 49.5833 23.7604 49.25 23.2188C48.9167 22.6562 48.5 22.2083 48 21.875C47.625 21.625 47.0521 21.3854 46.2812 21.1562C45.5312 20.9271 44.8438 20.7812 44.2188 20.7188V18.4375L59.5312 17.625L60 18.0938V42.9062C60 43.6354 60.1562 44.2604 60.4688 44.7812C60.7812 45.2812 61.2292 45.6562 61.8125 45.9062C62.2292 46.0938 62.6875 46.2604 63.1875 46.4062C63.6875 46.5521 64.2083 46.6562 64.75 46.7188V49ZM60.1875 6.375C60.1875 7.95833 59.5729 9.3125 58.3438 10.4375C57.1354 11.5417 55.6979 12.0938 54.0312 12.0938C52.3438 12.0938 50.8854 11.5417 49.6562 10.4375C48.4479 9.3125 47.8438 7.95833 47.8438 6.375C47.8438 4.79167 48.4479 3.4375 49.6562 2.3125C50.8854 1.1875 52.3438 0.625 54.0312 0.625C55.7188 0.625 57.1667 1.1875 58.375 2.3125C59.5833 3.4375 60.1875 4.79167 60.1875 6.375ZM85.4688 50C82.5729 50 80.0104 49.5833 77.7812 48.75C75.5729 47.8958 73.75 46.7396 72.3125 45.2812C70.875 43.8021 69.8021 42.0521 69.0938 40.0312C68.3854 38.0104 68.0312 35.8125 68.0312 33.4375C68.0312 31.2708 68.4583 29.2083 69.3125 27.25C70.1875 25.2917 71.3646 23.5729 72.8438 22.0938C74.3646 20.5729 76.25 19.3646 78.5 18.4688C80.7708 17.5521 83.2708 17.0938 86 17.0938C89.8333 17.0938 92.8646 17.8229 95.0938 19.2812C97.3229 20.7188 98.4375 22.6667 98.4375 25.125C98.4375 26.625 98.0417 27.8333 97.25 28.75C96.4583 29.6667 95.0938 30.125 93.1562 30.125C91.5938 30.125 90.2812 29.75 89.2188 29C88.1771 28.25 87.6562 27.2708 87.6562 26.0625C87.6562 25.0417 87.8229 24.0312 88.1562 23.0312C88.4896 22.0312 88.6875 21.2708 88.75 20.75C88.5208 20.375 88.2292 20.0938 87.875 19.9062C87.5208 19.6979 86.9688 19.5938 86.2188 19.5938C85.2812 19.5938 84.4271 19.8125 83.6562 20.25C82.8854 20.6875 82.1667 21.4583 81.5 22.5625C80.8542 23.6042 80.3333 25 79.9375 26.75C79.5625 28.5 79.375 30.6042 79.375 33.0625C79.375 36.7708 80.2396 39.7604 81.9688 42.0312C83.7188 44.3021 85.8021 45.4375 88.2188 45.4375C90.5312 45.4375 92.3646 44.9271 93.7188 43.9062C95.0938 42.8646 96.3125 41.3958 97.375 39.5L99.7188 41.125C99.0729 42.3958 98.3021 43.5625 97.4062 44.625C96.5104 45.6667 95.4375 46.5938 94.1875 47.4062C92.875 48.2604 91.5417 48.9062 90.1875 49.3438C88.8333 49.7812 87.2604 50 85.4688 50ZM141.719 49H127C125.188 45.8125 123.531 43.1146 122.031 40.9062C120.531 38.6771 119.115 36.6146 117.781 34.7188L115.906 36.3125V43.125C115.906 43.875 116.01 44.4896 116.219 44.9688C116.448 45.4479 116.875 45.8021 117.5 46.0312C117.875 46.1979 118.312 46.3438 118.812 46.4688C119.312 46.5938 119.812 46.6771 120.312 46.7188V49H100.969V46.7188C101.49 46.6771 102.01 46.625 102.531 46.5625C103.052 46.4792 103.51 46.375 103.906 46.25C104.573 46.0208 105.021 45.6667 105.25 45.1875C105.5 44.7083 105.625 44.0833 105.625 43.3125V8.46875C105.625 7.78125 105.469 7.07292 105.156 6.34375C104.865 5.59375 104.427 5.03125 103.844 4.65625C103.448 4.40625 102.854 4.19792 102.062 4.03125C101.271 3.86458 100.552 3.76042 99.9062 3.71875V1.4375L115.438 0.625L115.906 1.125V33.375C117.448 32 119.177 30.4062 121.094 28.5938C123.031 26.7812 124.583 25.2812 125.75 24.0938C126.438 23.3854 126.812 22.8542 126.875 22.5C126.958 22.125 127 21.8958 127 21.8125C127 21.4375 126.667 21.125 126 20.875C125.354 20.625 124.375 20.4062 123.062 20.2188V18H138.938V20.1562C136.854 20.7396 135.26 21.2917 134.156 21.8125C133.073 22.3125 131.885 22.9896 130.594 23.8438C129.74 24.4062 128.906 25 128.094 25.625C127.302 26.2292 126.385 26.9896 125.344 27.9062C127.385 30.8646 129.271 33.6042 131 36.125C132.729 38.6458 134.542 41.3125 136.438 44.125C137.083 45.1042 137.885 45.7604 138.844 46.0938C139.802 46.4271 140.76 46.6354 141.719 46.7188V49ZM195.938 20.2812C194.979 20.4271 194.094 20.75 193.281 21.25C192.469 21.7292 191.781 22.6354 191.219 23.9688C189.76 27.5312 188.594 30.4062 187.719 32.5938C186.844 34.7812 185.615 37.9375 184.031 42.0625C183.698 42.9167 183.292 44.0938 182.812 45.5938C182.354 47.0938 181.99 48.3229 181.719 49.2812H175.625L167.75 28.0312L160.375 49.2812H154.344C152.24 43.5938 150.583 39.1875 149.375 36.0625C148.167 32.9167 146.552 28.7708 144.531 23.625C144.156 22.6458 143.51 21.875 142.594 21.3125C141.698 20.75 140.771 20.4062 139.812 20.2812V18H159V20.2812C158.292 20.3438 157.448 20.5104 156.469 20.7812C155.49 21.0521 155 21.4167 155 21.875C155 22.0833 155.021 22.2708 155.062 22.4375C155.125 22.5833 155.219 22.8646 155.344 23.2812C155.906 24.9062 156.677 27.0104 157.656 29.5938C158.635 32.1562 159.781 35.1458 161.094 38.5625L168.031 18H174.219L182.125 39.25C183.333 36.0417 184.26 33.5208 184.906 31.6875C185.573 29.8333 186.406 27.4479 187.406 24.5312C187.552 24.0938 187.635 23.7083 187.656 23.375C187.698 23.0208 187.708 22.7917 187.688 22.6875C187.688 22.3125 187.5 21.9792 187.125 21.6875C186.75 21.375 186.302 21.125 185.781 20.9375C185.26 20.75 184.75 20.6042 184.25 20.5C183.771 20.3958 183.365 20.3229 183.031 20.2812V18H195.938V20.2812ZM229.219 21.6875C230.76 23.125 231.938 24.8438 232.75 26.8438C233.562 28.8438 233.969 31.0104 233.969 33.3438C233.969 35.6562 233.562 37.8438 232.75 39.9062C231.958 41.9479 230.792 43.6979 229.25 45.1562C227.604 46.7188 225.635 47.9167 223.344 48.75C221.073 49.5833 218.469 50 215.531 50C212.99 50 210.646 49.6354 208.5 48.9062C206.375 48.1771 204.49 47.0833 202.844 45.625C201.26 44.2292 200.01 42.5104 199.094 40.4688C198.177 38.4062 197.719 36.1042 197.719 33.5625C197.719 31.0625 198.115 28.8438 198.906 26.9062C199.719 24.9479 200.927 23.2083 202.531 21.6875C204.073 20.2292 205.969 19.1042 208.219 18.3125C210.49 17.5 213.021 17.0938 215.812 17.0938C218.729 17.0938 221.292 17.5 223.5 18.3125C225.729 19.1042 227.635 20.2292 229.219 21.6875ZM221.219 43.3438C221.677 42.1771 222.01 40.7604 222.219 39.0938C222.448 37.4271 222.562 35.4896 222.562 33.2812C222.562 31.8229 222.458 30.1562 222.25 28.2812C222.042 26.4062 221.729 24.9271 221.312 23.8438C220.812 22.5312 220.115 21.5 219.219 20.75C218.344 20 217.229 19.625 215.875 19.625C214.396 19.625 213.208 20.0312 212.312 20.8438C211.438 21.6562 210.76 22.7083 210.281 24C209.844 25.1875 209.542 26.5833 209.375 28.1875C209.208 29.7708 209.125 31.4271 209.125 33.1562C209.125 35.4271 209.198 37.3125 209.344 38.8125C209.49 40.2917 209.844 41.7812 210.406 43.2812C210.885 44.5729 211.573 45.5938 212.469 46.3438C213.365 47.0938 214.5 47.4688 215.875 47.4688C217.125 47.4688 218.198 47.125 219.094 46.4375C219.99 45.7292 220.698 44.6979 221.219 43.3438ZM257.031 49H237.438V46.7188C237.979 46.6771 238.5 46.625 239 46.5625C239.521 46.5 239.979 46.3958 240.375 46.25C241.042 46 241.49 45.6458 241.719 45.1875C241.969 44.7083 242.094 44.0833 242.094 43.3125V8.6875C242.094 7.89583 241.927 7.16667 241.594 6.5C241.281 5.8125 240.854 5.29167 240.312 4.9375C239.896 4.66667 239.26 4.40625 238.406 4.15625C237.573 3.90625 236.833 3.76042 236.188 3.71875V1.4375L251.906 0.625L252.375 1.125V42.9062C252.375 43.6771 252.51 44.3021 252.781 44.7812C253.052 45.2604 253.49 45.6354 254.094 45.9062C254.51 46.0938 254.948 46.2604 255.406 46.4062C255.865 46.5521 256.406 46.6562 257.031 46.7188V49ZM279.094 49H259.5V46.7188C260.042 46.6771 260.562 46.625 261.062 46.5625C261.583 46.5 262.042 46.3958 262.438 46.25C263.104 46 263.552 45.6458 263.781 45.1875C264.031 44.7083 264.156 44.0833 264.156 43.3125V8.6875C264.156 7.89583 263.99 7.16667 263.656 6.5C263.344 5.8125 262.917 5.29167 262.375 4.9375C261.958 4.66667 261.323 4.40625 260.469 4.15625C259.635 3.90625 258.896 3.76042 258.25 3.71875V1.4375L273.969 0.625L274.438 1.125V42.9062C274.438 43.6771 274.573 44.3021 274.844 44.7812C275.115 45.2604 275.552 45.6354 276.156 45.9062C276.573 46.0938 277.01 46.2604 277.469 46.4062C277.927 46.5521 278.469 46.6562 279.094 46.7188V49ZM310.188 59.4062C307.438 59.4062 304.917 59.2812 302.625 59.0312C300.354 58.7812 298.406 58.2396 296.781 57.4062C295.156 56.5729 293.906 55.3646 293.031 53.7812C292.156 52.2188 291.719 50.1354 291.719 47.5312C291.719 46.2812 291.781 44.9896 291.906 43.6562C292.052 42.3021 292.125 41.0521 292.125 39.9062C292.125 38.4062 291.917 37.1979 291.5 36.2812C291.083 35.3646 290.448 34.6354 289.594 34.0938C288.74 33.5521 287.698 33.1875 286.469 33C285.26 32.7917 283.958 32.6354 282.562 32.5312V27.8438C283.938 27.7396 285.24 27.5938 286.469 27.4062C287.719 27.1979 288.76 26.8229 289.594 26.2812C290.448 25.7188 291.083 25.0208 291.5 24.1875C291.917 23.3542 292.125 22.1146 292.125 20.4688C292.125 19.2812 292.052 18.0312 291.906 16.7188C291.781 15.3854 291.719 14.0938 291.719 12.8438C291.719 10.2812 292.146 8.21875 293 6.65625C293.854 5.09375 295.115 3.86458 296.781 2.96875C298.323 2.15625 300.271 1.625 302.625 1.375C305 1.10417 307.521 0.96875 310.188 0.96875V3.6875C309.062 3.77083 308.083 3.88542 307.25 4.03125C306.417 4.15625 305.552 4.48958 304.656 5.03125C303.906 5.48958 303.292 6.1875 302.812 7.125C302.354 8.0625 302.125 9.30208 302.125 10.8438V16.7812C302.125 18.9479 301.823 20.7708 301.219 22.25C300.635 23.7292 299.802 24.9167 298.719 25.8125C297.698 26.6667 296.51 27.3438 295.156 27.8438C293.802 28.3229 292.333 28.7083 290.75 29V31.375C292.25 31.6667 293.698 32.0625 295.094 32.5625C296.51 33.0625 297.719 33.7396 298.719 34.5938C299.76 35.4688 300.583 36.6354 301.188 38.0938C301.812 39.5312 302.125 41.3646 302.125 43.5938V49.5312C302.125 51.0729 302.354 52.3021 302.812 53.2188C303.271 54.1562 303.885 54.875 304.656 55.375C305.406 55.8333 306.271 56.1562 307.25 56.3438C308.229 56.5312 309.208 56.6458 310.188 56.6875V59.4062ZM354.531 48.3438L339.125 49.25L338.656 48.8125V45.9375L338.438 45.875C337.417 46.9792 336.031 47.9479 334.281 48.7812C332.552 49.5938 330.802 50 329.031 50C324.823 50 321.354 48.4375 318.625 45.3125C315.896 42.1875 314.531 38.1458 314.531 33.1875C314.531 28.7917 316.052 25.0208 319.094 21.875C322.156 18.7292 325.854 17.1562 330.188 17.1562C331.896 17.1562 333.5 17.3542 335 17.75C336.5 18.125 337.698 18.5729 338.594 19.0938V8.875C338.594 8.10417 338.438 7.38542 338.125 6.71875C337.812 6.03125 337.396 5.5 336.875 5.125C336.229 4.66667 335.417 4.34375 334.438 4.15625C333.479 3.94792 332.51 3.80208 331.531 3.71875V1.4375L348.406 0.625L348.875 1.125V42.0938C348.875 42.8854 349 43.5521 349.25 44.0938C349.521 44.6354 349.948 45.0625 350.531 45.375C350.969 45.6042 351.604 45.7708 352.438 45.875C353.292 45.9792 353.99 46.0417 354.531 46.0625V48.3438ZM338.594 42.7812V25.125C338.448 24.6458 338.24 24.1146 337.969 23.5312C337.719 22.9479 337.365 22.3958 336.906 21.875C336.49 21.4375 335.927 21.0521 335.219 20.7188C334.531 20.3854 333.75 20.2188 332.875 20.2188C330.792 20.2188 329.083 21.3958 327.75 23.75C326.417 26.1042 325.75 29.4271 325.75 33.7188C325.75 35.4062 325.865 36.9271 326.094 38.2812C326.344 39.6146 326.771 40.8333 327.375 41.9375C327.979 43.0417 328.75 43.9062 329.688 44.5312C330.646 45.1562 331.792 45.4688 333.125 45.4688C334.396 45.4688 335.448 45.2292 336.281 44.75C337.115 44.25 337.885 43.5938 338.594 42.7812ZM388.469 21.6875C390.01 23.125 391.188 24.8438 392 26.8438C392.812 28.8438 393.219 31.0104 393.219 33.3438C393.219 35.6562 392.812 37.8438 392 39.9062C391.208 41.9479 390.042 43.6979 388.5 45.1562C386.854 46.7188 384.885 47.9167 382.594 48.75C380.323 49.5833 377.719 50 374.781 50C372.24 50 369.896 49.6354 367.75 48.9062C365.625 48.1771 363.74 47.0833 362.094 45.625C360.51 44.2292 359.26 42.5104 358.344 40.4688C357.427 38.4062 356.969 36.1042 356.969 33.5625C356.969 31.0625 357.365 28.8438 358.156 26.9062C358.969 24.9479 360.177 23.2083 361.781 21.6875C363.323 20.2292 365.219 19.1042 367.469 18.3125C369.74 17.5 372.271 17.0938 375.062 17.0938C377.979 17.0938 380.542 17.5 382.75 18.3125C384.979 19.1042 386.885 20.2292 388.469 21.6875ZM380.469 43.3438C380.927 42.1771 381.26 40.7604 381.469 39.0938C381.698 37.4271 381.812 35.4896 381.812 33.2812C381.812 31.8229 381.708 30.1562 381.5 28.2812C381.292 26.4062 380.979 24.9271 380.562 23.8438C380.062 22.5312 379.365 21.5 378.469 20.75C377.594 20 376.479 19.625 375.125 19.625C373.646 19.625 372.458 20.0312 371.562 20.8438C370.688 21.6562 370.01 22.7083 369.531 24C369.094 25.1875 368.792 26.5833 368.625 28.1875C368.458 29.7708 368.375 31.4271 368.375 33.1562C368.375 35.4271 368.448 37.3125 368.594 38.8125C368.74 40.2917 369.094 41.7812 369.656 43.2812C370.135 44.5729 370.823 45.5938 371.719 46.3438C372.615 47.0938 373.75 47.4688 375.125 47.4688C376.375 47.4688 377.448 47.125 378.344 46.4375C379.24 45.7292 379.948 44.6979 380.469 43.3438ZM420.5 47.5625C419.167 48.1458 417.74 48.6667 416.219 49.125C414.698 49.6042 412.844 49.8438 410.656 49.8438C407.406 49.8438 404.99 49.0521 403.406 47.4688C401.844 45.8854 401.062 43.625 401.062 40.6875V21.5H395.438V18.125H401.188V8.65625H411.344V18.125H420.094V21.5H411.406V38.625C411.406 41.0625 411.74 42.7917 412.406 43.8125C413.094 44.8333 414.312 45.3438 416.062 45.3438C416.625 45.3438 417.406 45.3021 418.406 45.2188C419.406 45.1354 420.104 45.0417 420.5 44.9375V47.5625ZM450.656 32.5312C449.26 32.6354 447.948 32.7917 446.719 33C445.51 33.1875 444.479 33.5521 443.625 34.0938C442.771 34.6354 442.135 35.3646 441.719 36.2812C441.302 37.1979 441.094 38.4062 441.094 39.9062C441.094 41.0521 441.156 42.3021 441.281 43.6562C441.427 44.9896 441.5 46.2812 441.5 47.5312C441.5 50.1354 441.062 52.2188 440.188 53.7812C439.312 55.3646 438.062 56.5729 436.438 57.4062C434.812 58.2396 432.854 58.7812 430.562 59.0312C428.292 59.2812 425.781 59.4062 423.031 59.4062V56.6875C424.01 56.6458 425 56.5312 426 56.3438C427 56.1562 427.854 55.8333 428.562 55.375C429.333 54.875 429.948 54.1562 430.406 53.2188C430.865 52.3021 431.094 51.0729 431.094 49.5312V43.5938C431.094 41.3646 431.396 39.5312 432 38.0938C432.625 36.6354 433.458 35.4688 434.5 34.5938C435.5 33.7396 436.698 33.0625 438.094 32.5625C439.51 32.0625 440.969 31.6667 442.469 31.375V29C440.885 28.7083 439.417 28.3125 438.062 27.8125C436.708 27.3125 435.521 26.6458 434.5 25.8125C433.417 24.9167 432.573 23.7292 431.969 22.25C431.385 20.7708 431.094 18.9479 431.094 16.7812V10.8438C431.094 9.30208 430.854 8.0625 430.375 7.125C429.917 6.1875 429.312 5.48958 428.562 5.03125C427.667 4.48958 426.802 4.15625 425.969 4.03125C425.135 3.88542 424.156 3.77083 423.031 3.6875V0.96875C425.698 0.96875 428.198 1.09375 430.531 1.34375C432.885 1.57292 434.854 2.11458 436.438 2.96875C438.104 3.86458 439.365 5.09375 440.219 6.65625C441.073 8.21875 441.5 10.2812 441.5 12.8438C441.5 14.0938 441.427 15.3854 441.281 16.7188C441.156 18.0312 441.094 19.2812 441.094 20.4688C441.094 22.1146 441.302 23.3542 441.719 24.1875C442.135 25.0208 442.771 25.7188 443.625 26.2812C444.417 26.8021 445.438 27.1667 446.688 27.375C447.958 27.5833 449.281 27.7396 450.656 27.8438V32.5312ZM472.531 50C469.635 50 467.073 49.5833 464.844 48.75C462.635 47.8958 460.812 46.7396 459.375 45.2812C457.938 43.8021 456.865 42.0521 456.156 40.0312C455.448 38.0104 455.094 35.8125 455.094 33.4375C455.094 31.2708 455.521 29.2083 456.375 27.25C457.25 25.2917 458.427 23.5729 459.906 22.0938C461.427 20.5729 463.312 19.3646 465.562 18.4688C467.833 17.5521 470.333 17.0938 473.062 17.0938C476.896 17.0938 479.927 17.8229 482.156 19.2812C484.385 20.7188 485.5 22.6667 485.5 25.125C485.5 26.625 485.104 27.8333 484.312 28.75C483.521 29.6667 482.156 30.125 480.219 30.125C478.656 30.125 477.344 29.75 476.281 29C475.24 28.25 474.719 27.2708 474.719 26.0625C474.719 25.0417 474.885 24.0312 475.219 23.0312C475.552 22.0312 475.75 21.2708 475.812 20.75C475.583 20.375 475.292 20.0938 474.938 19.9062C474.583 19.6979 474.031 19.5938 473.281 19.5938C472.344 19.5938 471.49 19.8125 470.719 20.25C469.948 20.6875 469.229 21.4583 468.562 22.5625C467.917 23.6042 467.396 25 467 26.75C466.625 28.5 466.438 30.6042 466.438 33.0625C466.438 36.7708 467.302 39.7604 469.031 42.0312C470.781 44.3021 472.865 45.4375 475.281 45.4375C477.594 45.4375 479.427 44.9271 480.781 43.9062C482.156 42.8646 483.375 41.3958 484.438 39.5L486.781 41.125C486.135 42.3958 485.365 43.5625 484.469 44.625C483.573 45.6667 482.5 46.5938 481.25 47.4062C479.938 48.2604 478.604 48.9062 477.25 49.3438C475.896 49.7812 474.323 50 472.531 50ZM520.594 21.6875C522.135 23.125 523.312 24.8438 524.125 26.8438C524.938 28.8438 525.344 31.0104 525.344 33.3438C525.344 35.6562 524.938 37.8438 524.125 39.9062C523.333 41.9479 522.167 43.6979 520.625 45.1562C518.979 46.7188 517.01 47.9167 514.719 48.75C512.448 49.5833 509.844 50 506.906 50C504.365 50 502.021 49.6354 499.875 48.9062C497.75 48.1771 495.865 47.0833 494.219 45.625C492.635 44.2292 491.385 42.5104 490.469 40.4688C489.552 38.4062 489.094 36.1042 489.094 33.5625C489.094 31.0625 489.49 28.8438 490.281 26.9062C491.094 24.9479 492.302 23.2083 493.906 21.6875C495.448 20.2292 497.344 19.1042 499.594 18.3125C501.865 17.5 504.396 17.0938 507.188 17.0938C510.104 17.0938 512.667 17.5 514.875 18.3125C517.104 19.1042 519.01 20.2292 520.594 21.6875ZM512.594 43.3438C513.052 42.1771 513.385 40.7604 513.594 39.0938C513.823 37.4271 513.938 35.4896 513.938 33.2812C513.938 31.8229 513.833 30.1562 513.625 28.2812C513.417 26.4062 513.104 24.9271 512.688 23.8438C512.188 22.5312 511.49 21.5 510.594 20.75C509.719 20 508.604 19.625 507.25 19.625C505.771 19.625 504.583 20.0312 503.688 20.8438C502.812 21.6562 502.135 22.7083 501.656 24C501.219 25.1875 500.917 26.5833 500.75 28.1875C500.583 29.7708 500.5 31.4271 500.5 33.1562C500.5 35.4271 500.573 37.3125 500.719 38.8125C500.865 40.2917 501.219 41.7812 501.781 43.2812C502.26 44.5729 502.948 45.5938 503.844 46.3438C504.74 47.0938 505.875 47.4688 507.25 47.4688C508.5 47.4688 509.573 47.125 510.469 46.4375C511.365 45.7292 512.073 44.6979 512.594 43.3438ZM591.469 49H572.844V46.7188C573.302 46.6562 573.781 46.6042 574.281 46.5625C574.781 46.5208 575.198 46.4167 575.531 46.25C575.99 46.0417 576.281 45.6979 576.406 45.2188C576.531 44.7188 576.594 44.0833 576.594 43.3125V28.7188C576.594 26.5729 576.208 24.9688 575.438 23.9062C574.688 22.8229 573.604 22.2812 572.188 22.2812C571.292 22.2812 570.49 22.4271 569.781 22.7188C569.094 22.9896 568.458 23.3333 567.875 23.75C567.271 24.1875 566.802 24.625 566.469 25.0625C566.135 25.5 565.854 25.875 565.625 26.1875V42.9688C565.625 43.7188 565.708 44.3333 565.875 44.8125C566.062 45.2708 566.396 45.6354 566.875 45.9062C567.208 46.0938 567.583 46.2604 568 46.4062C568.438 46.5521 568.896 46.6562 569.375 46.7188V49H551.531V46.7188C551.927 46.6771 552.406 46.625 552.969 46.5625C553.531 46.5 553.948 46.3958 554.219 46.25C554.656 46.0208 554.938 45.6875 555.062 45.25C555.208 44.8125 555.281 44.1667 555.281 43.3125V28.7188C555.281 26.5729 554.896 24.9688 554.125 23.9062C553.375 22.8229 552.292 22.2812 550.875 22.2812C549.979 22.2812 549.177 22.4271 548.469 22.7188C547.781 22.9896 547.146 23.3333 546.562 23.75C545.958 24.1875 545.49 24.625 545.156 25.0625C544.823 25.5 544.542 25.875 544.312 26.1875V42.9688C544.312 43.6979 544.406 44.3021 544.594 44.7812C544.781 45.2604 545.115 45.6354 545.594 45.9062C545.927 46.0938 546.302 46.2604 546.719 46.4062C547.156 46.5521 547.615 46.6562 548.094 46.7188V49H529.375V46.7188C529.917 46.6771 530.448 46.625 530.969 46.5625C531.49 46.5 531.938 46.3958 532.312 46.25C532.979 46 533.438 45.6458 533.688 45.1875C533.938 44.7083 534.062 44.0833 534.062 43.3125V25.125C534.062 24.4583 533.885 23.8125 533.531 23.1875C533.177 22.5417 532.75 22.0417 532.25 21.6875C531.875 21.4375 531.396 21.2292 530.812 21.0625C530.25 20.8958 529.625 20.7812 528.938 20.7188V18.4375L543.844 17.625L544.312 18.0938V22.5H544.438C545.021 21.9792 545.708 21.3646 546.5 20.6562C547.312 19.9271 548.073 19.3438 548.781 18.9062C549.552 18.4062 550.542 17.9896 551.75 17.6562C552.958 17.3229 554.281 17.1562 555.719 17.1562C558.094 17.1562 560.073 17.6771 561.656 18.7188C563.26 19.7396 564.396 21.1042 565.062 22.8125H565.344C565.948 22.25 566.688 21.5938 567.562 20.8438C568.438 20.0729 569.24 19.4583 569.969 19C570.781 18.4792 571.812 18.0417 573.062 17.6875C574.333 17.3333 575.688 17.1562 577.125 17.1562C580.271 17.1562 582.688 18.0833 584.375 19.9375C586.083 21.7917 586.938 24.4271 586.938 27.8438V43.0312C586.938 43.8021 587.052 44.4271 587.281 44.9062C587.51 45.3646 587.927 45.7188 588.531 45.9688C588.865 46.1146 589.271 46.2604 589.75 46.4062C590.25 46.5521 590.823 46.6562 591.469 46.7188V49Z" fill="#0075AD"/>
</svg>
